<svg width="19" height="19" viewBox="0 0 19 19" fill="none" xmlns="http://www.w3.org/2000/svg">
<path d="M16.9687 9.65529L16.125 8.85682V10.0184V17.3762C16.125 17.5383 16.0705 17.6744 15.9332 17.8078C15.8024 17.935 15.6481 18 15.4375 18H12.375V13.4427C12.375 13.1437 12.2527 12.8834 12.0424 12.6844C11.8327 12.4859 11.5708 12.3807 11.2812 12.3807H7.71875C7.42922 12.3807 7.16731 12.4859 6.95758 12.6844C6.74734 12.8834 6.625 13.1437 6.625 13.4427V18H3.5625C3.35194 18 3.19756 17.935 3.06676 17.8078C2.92952 17.6744 2.875 17.5383 2.875 17.3762V10.0184V8.85682L2.03131 9.65529L1.75299 9.91869C1.61594 10.0484 1.45344 10.1155 1.23389 10.1155C1.01812 10.1155 0.851387 10.048 0.705503 9.90991C0.56052 9.7727 0.5 9.62747 0.5 9.44774C0.5 9.26399 0.560401 9.12289 0.696226 8.99434L0.352539 8.63119L0.696226 8.99434L8.93451 1.19763C9.0793 1.0606 9.25041 0.992957 9.48369 1.00057L9.5 1.0011L9.51631 1.00057C9.74959 0.992957 9.9207 1.0606 10.0655 1.19763L18.3038 8.99434C18.4396 9.12289 18.5 9.26399 18.5 9.44774C18.5 9.62747 18.4395 9.7727 18.2945 9.90991C18.1486 10.048 17.9819 10.1155 17.7661 10.1155C17.5466 10.1155 17.3841 10.0484 17.247 9.91869L16.9687 9.65529Z" fill="#A3A3B4" stroke="#A3A3B4"/>
</svg>
