<svg width="123" height="32" viewBox="0 0 123 32" fill="none" xmlns="http://www.w3.org/2000/svg">
<path d="M0.0371094 24.416H16.2559V20.2324H5.11133V14.502H15.377V10.3184H5.11133V4.59961H16.209V0.416016H0.0371094V24.416Z" fill="white"/>
<path d="M24.3213 6.41602H19.165L24.3213 15.416L18.9775 24.416H24.1338L27.626 18.1934L31.1768 24.416H36.2744L30.9189 15.416L36.1338 6.41602H31.0127L27.626 12.709L24.3213 6.41602Z" fill="white"/>
<path d="M39.0986 31.166H44.0908V21.5332H44.2432C44.9346 23.0332 46.4463 24.709 49.3525 24.709C53.4541 24.709 56.6533 21.4629 56.6533 15.4395C56.6533 9.25195 53.3135 6.18164 49.3643 6.18164C46.3525 6.18164 44.9111 7.97461 44.2432 9.43945H44.0205V6.41602H39.0986V31.166ZM43.9854 15.416C43.9854 12.2051 45.3447 10.1543 47.7705 10.1543C50.2432 10.1543 51.5557 12.2988 51.5557 15.416C51.5557 18.5566 50.2197 20.7363 47.7705 20.7363C45.3682 20.7363 43.9854 18.627 43.9854 15.416Z" fill="white"/>
<path d="M68.1846 24.7676C72.6377 24.7676 75.6377 22.5996 76.3408 19.2598L71.7236 18.9551C71.2197 20.3262 69.9307 21.041 68.2666 21.041C65.7705 21.041 64.1885 19.3887 64.1885 16.7051V16.6934H76.4463V15.3223C76.4463 9.20508 72.7432 6.18164 67.9854 6.18164C62.6885 6.18164 59.2549 9.94336 59.2549 15.498C59.2549 21.2051 62.6416 24.7676 68.1846 24.7676ZM64.1885 13.5996C64.2939 11.5488 65.8525 9.9082 68.0674 9.9082C70.2354 9.9082 71.7354 11.4551 71.7471 13.5996H64.1885Z" fill="white"/>
<path d="M79.7041 24.416H84.6963V14.2324C84.6963 12.0176 86.3135 10.4941 88.5166 10.4941C89.208 10.4941 90.1572 10.6113 90.626 10.7637V6.33398C90.1807 6.22852 89.5596 6.1582 89.0557 6.1582C87.04 6.1582 85.3877 7.33008 84.7314 9.55664H84.5439V6.41602H79.7041V24.416Z" fill="white"/>
<path d="M103.684 6.41602H100.297V2.10352H95.3047V6.41602H92.8438V10.166H95.3047V19.541C95.2812 23.0684 97.6836 24.8145 101.305 24.6621C102.594 24.6152 103.508 24.3574 104.012 24.1934L103.227 20.4785C102.98 20.5254 102.453 20.6426 101.984 20.6426C100.988 20.6426 100.297 20.2676 100.297 18.8848V10.166H103.684V6.41602Z" fill="white"/>
<path d="M121.654 11.5488C121.209 8.23242 118.537 6.18164 113.99 6.18164C109.385 6.18164 106.35 8.31445 106.361 11.7832C106.35 14.4785 108.049 16.2246 111.564 16.9277L114.682 17.5488C116.252 17.8652 116.967 18.4395 116.99 19.3418C116.967 20.4082 115.807 21.1699 114.061 21.1699C112.279 21.1699 111.096 20.4082 110.791 18.9434L105.881 19.2012C106.35 22.6465 109.279 24.7676 114.049 24.7676C118.713 24.7676 122.053 22.3887 122.064 18.8379C122.053 16.2363 120.354 14.6777 116.861 13.9629L113.604 13.3066C111.928 12.9434 111.307 12.3691 111.318 11.502C111.307 10.4238 112.525 9.7207 114.072 9.7207C115.807 9.7207 116.838 10.6699 117.084 11.8301L121.654 11.5488Z" fill="white"/>
</svg>
