<svg width="124" height="32" viewBox="0 0 124 32" fill="none" xmlns="http://www.w3.org/2000/svg">
<path d="M0.994629 24.333H17.2134V20.1494H6.06885V14.4189H16.3345V10.2354H6.06885V4.5166H17.1665V0.333008H0.994629V24.333Z" fill="#131340"/>
<path d="M25.2788 6.33301H20.1226L25.2788 15.333L19.9351 24.333H25.0913L28.5835 18.1104L32.1343 24.333H37.2319L31.8765 15.333L37.0913 6.33301H31.9702L28.5835 12.626L25.2788 6.33301Z" fill="#131340"/>
<path d="M40.0562 31.083H45.0483V21.4502H45.2007C45.8921 22.9502 47.4038 24.626 50.3101 24.626C54.4116 24.626 57.6108 21.3799 57.6108 15.3564C57.6108 9.16895 54.271 6.09863 50.3218 6.09863C47.3101 6.09863 45.8687 7.8916 45.2007 9.35645H44.978V6.33301H40.0562V31.083ZM44.9429 15.333C44.9429 12.1221 46.3022 10.0713 48.728 10.0713C51.2007 10.0713 52.5132 12.2158 52.5132 15.333C52.5132 18.4736 51.1772 20.6533 48.728 20.6533C46.3257 20.6533 44.9429 18.5439 44.9429 15.333Z" fill="#131340"/>
<path d="M69.1421 24.6846C73.5952 24.6846 76.5952 22.5166 77.2983 19.1768L72.6812 18.8721C72.1772 20.2432 70.8882 20.958 69.2241 20.958C66.728 20.958 65.146 19.3057 65.146 16.6221V16.6104H77.4038V15.2393C77.4038 9.12207 73.7007 6.09863 68.9429 6.09863C63.646 6.09863 60.2124 9.86035 60.2124 15.415C60.2124 21.1221 63.5991 24.6846 69.1421 24.6846ZM65.146 13.5166C65.2515 11.4658 66.8101 9.8252 69.0249 9.8252C71.1929 9.8252 72.6929 11.3721 72.7046 13.5166H65.146Z" fill="#131340"/>
<path d="M80.6616 24.333H85.6538V14.1494C85.6538 11.9346 87.271 10.4111 89.4741 10.4111C90.1655 10.4111 91.1147 10.5283 91.5835 10.6807V6.25098C91.1382 6.14551 90.5171 6.0752 90.0132 6.0752C87.9976 6.0752 86.3452 7.24707 85.689 9.47363H85.5015V6.33301H80.6616V24.333Z" fill="#131340"/>
<path d="M104.641 6.33301H101.254V2.02051H96.2622V6.33301H93.8013V10.083H96.2622V19.458C96.2388 22.9854 98.6411 24.7314 102.262 24.5791C103.551 24.5322 104.465 24.2744 104.969 24.1104L104.184 20.3955C103.938 20.4424 103.411 20.5596 102.942 20.5596C101.946 20.5596 101.254 20.1846 101.254 18.8018V10.083H104.641V6.33301Z" fill="#131340"/>
<path d="M122.612 11.4658C122.167 8.14941 119.495 6.09863 114.948 6.09863C110.342 6.09863 107.307 8.23145 107.319 11.7002C107.307 14.3955 109.006 16.1416 112.522 16.8447L115.639 17.4658C117.209 17.7822 117.924 18.3564 117.948 19.2588C117.924 20.3252 116.764 21.0869 115.018 21.0869C113.237 21.0869 112.053 20.3252 111.749 18.8604L106.838 19.1182C107.307 22.5635 110.237 24.6846 115.006 24.6846C119.67 24.6846 123.01 22.3057 123.022 18.7549C123.01 16.1533 121.311 14.5947 117.819 13.8799L114.561 13.2236C112.885 12.8604 112.264 12.2861 112.276 11.4189C112.264 10.3408 113.483 9.6377 115.03 9.6377C116.764 9.6377 117.795 10.5869 118.042 11.7471L122.612 11.4658Z" fill="#131340"/>
</svg>
