<svg width="21" height="21" viewBox="0 0 21 21" fill="none" xmlns="http://www.w3.org/2000/svg">
<path d="M10.5 2.53542C11.0598 1.90073 11.7997 1.45157 12.6211 1.2477C13.4424 1.04383 14.3064 1.09492 15.0981 1.39417C15.8897 1.69342 16.5715 2.22664 17.0526 2.92287C17.5337 3.61911 17.7914 4.44536 17.7914 5.29167C17.7914 6.13798 17.5337 6.96422 17.0526 7.66046C16.5715 8.3567 15.8897 8.88992 15.0981 9.18917C14.3064 9.48841 13.4424 9.5395 12.6211 9.33563C11.7997 9.13176 11.0598 8.6826 10.5 8.04792M13.625 19.875H1.125V18.8333C1.125 17.1757 1.78348 15.586 2.95558 14.4139C4.12769 13.2418 5.7174 12.5833 7.375 12.5833C9.0326 12.5833 10.6223 13.2418 11.7944 14.4139C12.9665 15.586 13.625 17.1757 13.625 18.8333V19.875ZM13.625 19.875H19.875V18.8333C19.8752 17.7362 19.5865 16.6583 19.038 15.708C18.4895 14.7578 17.7005 13.9687 16.7504 13.42C15.8002 12.8714 14.7224 12.5825 13.6252 12.5825C12.528 12.5824 11.4502 12.8712 10.5 13.4198M11.5417 5.29167C11.5417 6.39674 11.1027 7.45654 10.3213 8.23795C9.53988 9.01935 8.48007 9.45833 7.375 9.45833C6.26993 9.45833 5.21012 9.01935 4.42872 8.23795C3.64732 7.45654 3.20833 6.39674 3.20833 5.29167C3.20833 4.1866 3.64732 3.12679 4.42872 2.34539C5.21012 1.56399 6.26993 1.125 7.375 1.125C8.48007 1.125 9.53988 1.56399 10.3213 2.34539C11.1027 3.12679 11.5417 4.1866 11.5417 5.29167Z" stroke="#0ED28C" stroke-width="1.75" stroke-linecap="round" stroke-linejoin="round"/>
</svg>
