<svg width="19" height="21" viewBox="0 0 19 21" fill="none" xmlns="http://www.w3.org/2000/svg">
<path d="M6.76487 5.3838H6.76498L6.76476 5.37331C6.7531 4.81742 6.55646 4.29865 6.17964 3.91618C5.80007 3.53092 5.27056 3.31754 4.65975 3.31754C4.05059 3.31754 3.51409 3.52972 3.1283 3.91189C2.74326 4.29332 2.53682 4.81614 2.53682 5.3838C2.53682 6.51856 3.37196 7.44945 4.62234 7.44945H4.64076C5.26142 7.44945 5.79924 7.23114 6.18272 6.8453C6.56424 6.46142 6.76487 5.93982 6.76487 5.3838ZM16.4234 17.7537H16.9234V17.2537V12.0554C16.9234 10.583 16.549 9.4313 15.8555 8.64125C15.1556 7.84391 14.1834 7.47514 13.12 7.47514C12.2536 7.47514 11.5994 7.72789 11.1049 8.08724C11.0808 8.10478 11.0571 8.12252 11.0339 8.14045V7.68774H10.5339H7.66392H7.1413L7.16441 8.20986C7.18256 8.61996 7.18277 10.8683 7.17804 13.0386C7.17569 14.1183 7.17216 15.1715 7.16922 15.9549L7.16547 16.8969L7.16434 17.159L7.16403 17.2278L7.16395 17.2454L7.16393 17.2499L7.16393 17.251L7.16393 17.2513L7.66392 17.2537L7.16393 17.2514L7.16162 17.7537H7.66392H10.5333H11.0333V17.2537V12.1907C11.0333 11.9216 11.055 11.7356 11.0933 11.6378L11.0946 11.6345C11.2605 11.2016 11.5929 10.8538 12.1004 10.8538C12.4615 10.8538 12.6617 10.9852 12.7971 11.194C12.9549 11.4372 13.0541 11.8368 13.0541 12.4039V17.2537V17.7537H13.5541H16.4234ZM3.20607 7.6884H2.70607V8.1884V17.2537V17.7537H3.20607H6.07544H6.57544V17.2537V8.1884V7.6884H6.07544H3.20607ZM0.5 4.43485C0.5 2.53779 1.97462 1.02539 3.72329 1.02539H15.2773C17.0259 1.02539 18.5 2.53771 18.5 4.43485V16.5666C18.5 18.4636 17.026 19.9754 15.2773 19.9754H3.72329C1.97448 19.9754 0.5 18.4635 0.5 16.5666V4.43485Z" fill="#A3A3B4" stroke="#A3A3B4"/>
</svg>
