<svg width="39" height="39" viewBox="0 0 39 39" fill="none" xmlns="http://www.w3.org/2000/svg">
<path d="M9.16028 15.8109C8.58964 15.9566 7.99278 16.034 7.37838 16.034C3.30341 16.034 0 12.6313 0 8.43398C0 4.23662 3.30341 0.833984 7.37838 0.833984C11.2817 0.833984 14.477 3.95595 14.7394 7.9079L19.2577 11.2926L24.3484 8.23384C24.9415 4.64885 27.9721 1.9197 31.6216 1.9197C35.6966 1.9197 39 5.32234 39 9.5197C39 13.7171 35.6966 17.1197 31.6216 17.1197C30.7464 17.1197 29.9067 16.9627 29.1277 16.6746L23.7162 19.9261V25.4123C25.3273 26.8064 26.3514 28.897 26.3514 31.234C26.3514 35.4314 23.0479 38.834 18.973 38.834C14.898 38.834 11.5946 35.4314 11.5946 31.234C11.5946 28.897 12.6186 26.8064 14.2297 25.4123V19.6085L9.16028 15.8109Z" fill="white"/>
</svg>
