<svg width="19" height="15" viewBox="0 0 19 15" fill="none" xmlns="http://www.w3.org/2000/svg">
<path d="M18.5 4.99657L10.0323 9.4096L10.0321 9.40972L9.801 8.96632C9.614 9.0639 9.3865 9.0639 9.199 8.96632L18.5 4.99657ZM18.5 4.99657V12.1182C18.5 13.1906 17.5747 14.1051 16.375 14.1051H2.625C2.05295 14.1051 1.50941 13.8895 1.11272 13.5137C0.716937 13.1388 0.5 12.6362 0.5 12.1182V4.99701L18.5 4.99657ZM2.62496 0.894531H2.625H16.375C16.375 0.894531 16.375 0.894531 16.375 0.894531C16.938 0.894592 17.4738 1.10345 17.8691 1.46907C18.1855 1.76176 18.3914 2.13545 18.4672 2.53501L9.50001 7.20787L0.532457 2.53436C0.609424 2.12913 0.820264 1.75088 1.14375 1.45686C1.538 1.09853 2.06838 0.894482 2.62496 0.894531Z" fill="#A3A3B4" stroke="#A3A3B4"/>
</svg>
