<svg width="19" height="19" viewBox="0 0 19 19" fill="none" xmlns="http://www.w3.org/2000/svg">
<path d="M18.3266 14.928L18.3271 14.9284C18.4338 15.0191 18.4913 15.1385 18.4991 15.2577C18.5068 15.3766 18.4655 15.4992 18.3738 15.5988L18.3725 15.6002L16.4034 17.7552C16.3093 17.8388 16.1813 17.8928 16.0405 17.9001L16.0383 17.9003C16.0134 17.9017 15.8906 17.9075 15.6838 17.9075C14.2523 17.9075 9.05993 17.6185 4.92732 13.7447C0.197351 9.30778 0.494634 3.58134 0.507815 3.3754L0.507914 3.37376C0.514474 3.2657 0.561529 3.1575 0.649088 3.06994L2.94572 1.22323C3.05705 1.13377 3.20703 1.08467 3.36387 1.09387C3.52063 1.10306 3.66076 1.16903 3.75695 1.26834L3.75715 1.26854L7.69803 5.33254L7.69831 5.33283C7.79348 5.43081 7.83865 5.55291 7.83472 5.67219L8.33445 5.68867L7.83472 5.6722C7.83078 5.79163 7.77744 5.9121 7.67465 6.00561L7.67402 6.00618L5.05139 8.40018L4.84292 8.59048L4.89815 8.86729C5.02958 9.52608 5.45878 10.7857 6.8168 12.0601L6.81741 12.0606C8.17371 13.3291 9.50392 13.7245 10.1915 13.8476L10.4429 13.8926L10.6267 13.7154L13.179 11.2544L13.179 11.2544C13.2793 11.1576 13.422 11.096 13.5789 11.0915C13.7357 11.0869 13.8833 11.1402 13.9911 11.232C13.9911 11.232 13.9911 11.232 13.9912 11.232L18.3266 14.928Z" fill="#A3A3B4" stroke="#A3A3B4"/>
</svg>
